<svg xmlns="http://www.w3.org/2000/svg" version="1.1" xmlns:xlink="http://www.w3.org/1999/xlink" width="512" height="512" x="0" y="0" viewBox="0 0 24 24" style="enable-background:new 0 0 512 512" xml:space="preserve"><g><path fill="#000000" fill-rule="evenodd" d="M6 5a1 1 0 0 0-1 1v12a1 1 0 0 0 1 1h12a1 1 0 0 0 1-1v-6a1 1 0 1 1 2 0v6a3 3 0 0 1-3 3H6a3 3 0 0 1-3-3V6a3 3 0 0 1 3-3h10a1 1 0 1 1 0 2zm14.293-.707a1 1 0 1 1 1.414 1.414l-9 9a1 1 0 0 1-1.414 0l-3-3a1 1 0 1 1 1.414-1.414L12 12.586z" clip-rule="evenodd" opacity="1" data-original="#000000"/></g></svg>