<svg xmlns="http://www.w3.org/2000/svg" version="1.1" xmlns:xlink="http://www.w3.org/1999/xlink" width="512" height="512" x="0" y="0" viewBox="0 0 512.002 512.002" style="enable-background:new 0 0 512 512" xml:space="preserve"><g><circle cx="149.996" cy="346.001" r="50" style="fill-rule:evenodd;clip-rule:evenodd;stroke-width:20;stroke-linecap:round;stroke-linejoin:round;stroke-miterlimit:22.9256;" transform="rotate(-25.671 149.991 345.99)" fill-rule="evenodd" clip-rule="evenodd" fill="none" stroke="#000000" stroke-width="20" stroke-linecap="round" stroke-linejoin="round" stroke-miterlimit="22.9256" data-original="#000000"/><path d="M149.993 346.001H150" style="fill-rule:evenodd;clip-rule:evenodd;stroke-width:20;stroke-linecap:round;stroke-linejoin:round;stroke-miterlimit:22.9256;" fill-rule="evenodd" clip-rule="evenodd" fill="none" stroke="#000000" stroke-width="20" stroke-linecap="round" stroke-linejoin="round" stroke-miterlimit="22.9256" data-original="#000000"/><circle cx="402.006" cy="346.001" r="50" style="fill-rule:evenodd;clip-rule:evenodd;stroke-width:20;stroke-linecap:round;stroke-linejoin:round;stroke-miterlimit:22.9256;" transform="rotate(-19.898 402.064 346.003)" fill-rule="evenodd" clip-rule="evenodd" fill="none" stroke="#000000" stroke-width="20" stroke-linecap="round" stroke-linejoin="round" stroke-miterlimit="22.9256" data-original="#000000"/><path d="M402.002 346.001h.007M397.014 151.001v75h84.987c11.792 0 20 8.458 20 20v110h-49.496m18.361-131.407-33.855-78.593h-79.999m-5.005 160v-190H70.003l-20 240h49.496m339.082-45h58.421m-145.496 45H200.499m-145.497-45h58.172m73.65 0h178.607M79.089 262.251H10M149.089 213.501H40M104.089 164.751H25M186.133 164.751h-37.044M212.611 213.501h-18.522" style="fill-rule:evenodd;clip-rule:evenodd;stroke-width:20;stroke-linecap:round;stroke-linejoin:round;stroke-miterlimit:22.9256;" fill-rule="evenodd" clip-rule="evenodd" fill="none" stroke="#000000" stroke-width="20" stroke-linecap="round" stroke-linejoin="round" stroke-miterlimit="22.9256" data-original="#000000"/></g></svg>